v -1.000000 0.014227 1.000000
v -0.000000 2.014227 -0.000000
v -1.000000 0.014227 -1.000000
v 1.000000 0.014227 -1.000000
v 1.000000 0.014227 1.000000
vt 0.009981 0.987819
vt 0.176329 0.533846
vt 0.342677 0.987819
vt 0.637361 0.012181
vt 0.637361 0.509483
vt 0.333652 0.177949
vt 0.362639 0.987819
vt 0.528987 0.533846
vt 0.695336 0.987819
vt 0.009981 0.343716
vt 0.313690 0.012181
vt 0.313690 0.509483
vt 0.657323 0.012181
vt 0.990019 0.418227
vt 0.657323 0.418227
vt 0.990019 0.012181
vn -0.8944 0.4472 -0.0000
vn 0.0000 0.4472 -0.8944
vn 0.8944 0.4472 -0.0000
vn 0.0000 0.4472 0.8944
vn 0.0000 -1.0000 0.0000
f 1/1/1 2/2/1 3/3/1
f 3/4/2 2/5/2 4/6/2
f 4/7/3 2/8/3 5/9/3
f 5/10/4 2/11/4 1/12/4
f 4/13/5 1/14/5 3/15/5
f 4/13/5 5/16/5 1/14/5